REM DIRINDEX 1\6,1\2\7,1\2\8,1\2\9,1\3\10,1\3\11,1\4\12,1\4\13,1\4\14,1\5\15,1\5\16,1\5\17
REM DIRNAME folder01,folder02,folder03,folder04,folder05,folder06,folder07,folder08,folder09,folder10,folder11,folder12,folder13,folder14,folder15,folder16,folder17
TITLE ""
FILE "P2Q_t2_0409-0426.mp3" MP3
  TRACK 01 AUDIO
    TITLE "7:cjc040_5056"
    INDEX 01 00:00:00
  TRACK 02 AUDIO
    TITLE "0:"
    INDEX 01 00:01:09
  TRACK 03 AUDIO
    TITLE "8:cjc040_5057"
    INDEX 01 00:01:64
  TRACK 04 AUDIO
    TITLE "0:"
    INDEX 01 00:03:06
  TRACK 05 AUDIO
    TITLE "9:cjc040_5058"
    INDEX 01 00:03:55
  TRACK 06 AUDIO
    TITLE "0:"
    INDEX 01 00:05:03
  TRACK 07 AUDIO
    TITLE "7:cjc040_5059"
    INDEX 01 00:06:65
  TRACK 08 AUDIO
    TITLE "0:"
    INDEX 01 00:08:07
  TRACK 09 AUDIO
    TITLE "8:cjc040_5060"
    INDEX 01 00:08:62
  TRACK 10 AUDIO
    TITLE "0:"
    INDEX 01 00:10:27
  TRACK 11 AUDIO
    TITLE "9:cjc040_5061"
    INDEX 01 00:11:09
  TRACK 12 AUDIO
    TITLE "0:"
    INDEX 01 00:12:30
  TRACK 13 AUDIO
    TITLE "7:cjc040_5062"
    INDEX 01 00:14:11
  TRACK 14 AUDIO
    TITLE "0:"
    INDEX 01 00:15:21
  TRACK 15 AUDIO
    TITLE "8:cjc040_5063"
    INDEX 01 00:15:74
  TRACK 16 AUDIO
    TITLE "0:"
    INDEX 01 00:19:09
  TRACK 17 AUDIO
    TITLE "9:cjc040_5064"
    INDEX 01 00:19:62
  TRACK 18 AUDIO
    TITLE "0:"
    INDEX 01 00:20:69
  TRACK 19 AUDIO
    TITLE "7:cjc040_5065"
    INDEX 01 00:22:54
  TRACK 20 AUDIO
    TITLE "0:"
    INDEX 01 00:23:63
  TRACK 21 AUDIO
    TITLE "8:cjc040_5066"
    INDEX 01 00:24:45
  TRACK 22 AUDIO
    TITLE "0:"
    INDEX 01 00:25:72
  TRACK 23 AUDIO
    TITLE "9:cjc040_5067"
    INDEX 01 00:26:48
  TRACK 24 AUDIO
    TITLE "0:"
    INDEX 01 00:27:63
  TRACK 25 AUDIO
    TITLE "7:cjc040_5068"
    INDEX 01 00:29:38
  TRACK 26 AUDIO
    TITLE "0:"
    INDEX 01 00:30:55
  TRACK 27 AUDIO
    TITLE "8:cjc040_5069"
    INDEX 01 00:31:35
  TRACK 28 AUDIO
    TITLE "0:"
    INDEX 01 00:34:30
  TRACK 29 AUDIO
    TITLE "9:cjc040_5070"
    INDEX 01 00:35:08
  TRACK 30 AUDIO
    TITLE "0:"
    INDEX 01 00:36:27
  TRACK 31 AUDIO
    TITLE "7:cjc040_5071"
    INDEX 01 00:38:06
  TRACK 32 AUDIO
    TITLE "0:"
    INDEX 01 00:39:27
  TRACK 33 AUDIO
    TITLE "8:cjc040_5072"
    INDEX 01 00:40:03
  TRACK 34 AUDIO
    TITLE "0:"
    INDEX 01 00:42:72
  TRACK 35 AUDIO
    TITLE "9:cjc040_5073"
    INDEX 01 00:43:50
  TRACK 36 AUDIO
    TITLE "0:"
    INDEX 01 00:45:00
  TRACK 37 AUDIO
    TITLE "7:cjc040_5074"
    INDEX 01 00:46:53
  TRACK 38 AUDIO
    TITLE "0:"
    INDEX 01 00:47:60
  TRACK 39 AUDIO
    TITLE "8:cjc040_5075"
    INDEX 01 00:48:44
  TRACK 40 AUDIO
    TITLE "0:"
    INDEX 01 00:50:13
  TRACK 41 AUDIO
    TITLE "9:cjc040_5076"
    INDEX 01 00:50:66
  TRACK 42 AUDIO
    TITLE "0:"
    INDEX 01 00:52:00
  TRACK 43 AUDIO
    TITLE "7:cjc040_5077"
    INDEX 01 00:53:58
  TRACK 44 AUDIO
    TITLE "0:"
    INDEX 01 00:55:01
  TRACK 45 AUDIO
    TITLE "8:cjc040_5078"
    INDEX 01 00:55:55
  TRACK 46 AUDIO
    TITLE "0:"
    INDEX 01 00:58:73
  TRACK 47 AUDIO
    TITLE "9:cjc040_5079"
    INDEX 01 00:59:51
  TRACK 48 AUDIO
    TITLE "0:"
    INDEX 01 01:00:70
  TRACK 49 AUDIO
    TITLE "7:cjc040_5080"
    INDEX 01 01:02:52
  TRACK 50 AUDIO
    TITLE "0:"
    INDEX 01 01:04:00
  TRACK 51 AUDIO
    TITLE "8:cjc040_5081"
    INDEX 01 01:04:50
  TRACK 52 AUDIO
    TITLE "0:"
    INDEX 01 01:06:30
  TRACK 53 AUDIO
    TITLE "9:cjc040_5082"
    INDEX 01 01:07:04
  TRACK 54 AUDIO
    TITLE "0:"
    INDEX 01 01:08:27
  TRACK 55 AUDIO
    TITLE "7:cjc040_5083"
    INDEX 01 01:10:12
  TRACK 56 AUDIO
    TITLE "0:"
    INDEX 01 01:11:13
  TRACK 57 AUDIO
    TITLE "8:cjc040_5084"
    INDEX 01 01:11:70
  TRACK 58 AUDIO
    TITLE "0:"
    INDEX 01 01:14:37
  TRACK 59 AUDIO
    TITLE "9:cjc040_5085"
    INDEX 01 01:15:15
  TRACK 60 AUDIO
    TITLE "0:"
    INDEX 01 01:16:18
  TRACK 61 AUDIO
    TITLE "7:cjc040_5086"
    INDEX 01 01:18:00
  TRACK 62 AUDIO
    TITLE "0:"
    INDEX 01 01:19:09
  TRACK 63 AUDIO
    TITLE "8:cjc040_5087"
    INDEX 01 01:19:62
  TRACK 64 AUDIO
    TITLE "0:"
    INDEX 01 01:24:18
  TRACK 65 AUDIO
    TITLE "9:cjc040_5088"
    INDEX 01 01:24:67
  TRACK 66 AUDIO
    TITLE "0:"
    INDEX 01 01:26:03
  TRACK 67 AUDIO
    TITLE "7:cjc040_5089"
    INDEX 01 01:27:59
  TRACK 68 AUDIO
    TITLE "0:"
    INDEX 01 01:29:09
  TRACK 69 AUDIO
    TITLE "8:cjc040_5090"
    INDEX 01 01:29:64
  TRACK 70 AUDIO
    TITLE "0:"
    INDEX 01 01:31:22
  TRACK 71 AUDIO
    TITLE "9:cjc040_5091"
    INDEX 01 01:31:71
  TRACK 72 AUDIO
    TITLE "0:"
    INDEX 01 01:33:25
  TRACK 73 AUDIO
    TITLE "7:cjc040_5092"
    INDEX 01 01:35:06
  TRACK 74 AUDIO
    TITLE "0:"
    INDEX 01 01:36:07
  TRACK 75 AUDIO
    TITLE "8:cjc040_5093"
    INDEX 01 01:36:62
  TRACK 76 AUDIO
    TITLE "0:"
    INDEX 01 01:38:18
  TRACK 77 AUDIO
    TITLE "9:cjc040_5094"
    INDEX 01 01:39:00
  TRACK 78 AUDIO
    TITLE "0:"
    INDEX 01 01:40:03
  TRACK 79 AUDIO
    TITLE "7:cjc040_5095"
    INDEX 01 01:41:59
  TRACK 80 AUDIO
    TITLE "0:"
    INDEX 01 01:43:09
  TRACK 81 AUDIO
    TITLE "8:cjc040_5096"
    INDEX 01 01:43:64
  TRACK 82 AUDIO
    TITLE "0:"
    INDEX 01 01:45:02
  TRACK 83 AUDIO
    TITLE "9:cjc040_5097"
    INDEX 01 01:45:51
  TRACK 84 AUDIO
    TITLE "0:"
    INDEX 01 01:47:01
  TRACK 85 AUDIO
    TITLE "7:cjc040_5098"
    INDEX 01 01:48:63
  TRACK 86 AUDIO
    TITLE "0:"
    INDEX 01 01:50:25
  TRACK 87 AUDIO
    TITLE "8:cjc040_5099"
    INDEX 01 01:51:01
  TRACK 88 AUDIO
    TITLE "0:"
    INDEX 01 01:54:07
  TRACK 89 AUDIO
    TITLE "9:cjc040_5100"
    INDEX 01 01:54:60
  TRACK 90 AUDIO
    TITLE "0:"
    INDEX 01 01:56:24
  TRACK 91 AUDIO
    TITLE "7:cjc040_5101"
    INDEX 01 01:58:03
  TRACK 92 AUDIO
    TITLE "0:"
    INDEX 01 01:59:24
  TRACK 93 AUDIO
    TITLE "8:cjc040_5102"
    INDEX 01 02:00:04
  TRACK 94 AUDIO
    TITLE "0:"
    INDEX 01 02:01:37
  TRACK 95 AUDIO
    TITLE "9:cjc040_5103"
    INDEX 01 02:02:15
  TRACK 96 AUDIO
    TITLE "0:"
    INDEX 01 02:03:30
  TRACK 97 AUDIO
    TITLE "7:cjc040_5104"
    INDEX 01 02:05:13
  TRACK 98 AUDIO
    TITLE "0:"
    INDEX 01 02:06:12
  TRACK 99 AUDIO
    TITLE "8:cjc040_5105"
    INDEX 01 02:06:71
  TRACK 100 AUDIO
    TITLE "0:"
    INDEX 01 02:08:00
  TRACK 101 AUDIO
    TITLE "9:cjc040_5106"
    INDEX 01 02:08:50
  TRACK 102 AUDIO
    TITLE "0:"
    INDEX 01 02:09:54
  TRACK 103 AUDIO
    TITLE "7:cjc040_5107"
    INDEX 01 02:11:37
  TRACK 104 AUDIO
    TITLE "0:"
    INDEX 01 02:12:64
  TRACK 105 AUDIO
    TITLE "8:cjc040_5108"
    INDEX 01 02:13:42
  TRACK 106 AUDIO
    TITLE "0:"
    INDEX 01 02:15:05
  TRACK 107 AUDIO
    TITLE "9:cjc040_5109"
    INDEX 01 02:15:56
  TRACK 108 AUDIO
    TITLE "0:"
    INDEX 01 02:17:02
